<?xml version="1.0" standalone="no"?>
<!DOCTYPE svg PUBLIC "-//W3C//DTD SVG 20010904//EN"
 "http://www.w3.org/TR/2001/REC-SVG-20010904/DTD/svg10.dtd">
<svg version="1.0" xmlns="http://www.w3.org/2000/svg"
 width="512.000000pt" height="512.000000pt" viewBox="0 0 512.000000 512.000000"
 preserveAspectRatio="xMidYMid meet">
<metadata>
Created by potrace 1.11, written by Peter Selinger 2001-2013
</metadata>
<g transform="translate(0.000000,512.000000) scale(0.100000,-0.100000)"
fill="#000000" stroke="none">
<path d="M4449 5116 c-2 -2 -22 -6 -44 -10 -22 -3 -53 -8 -70 -11 -42 -7 -83
-14 -130 -20 -22 -4 -51 -8 -65 -11 -14 -2 -52 -9 -85 -14 -33 -5 -73 -12 -90
-15 -52 -9 -89 -14 -130 -20 -22 -4 -51 -8 -65 -11 -14 -2 -41 -7 -60 -10 -19
-2 -57 -9 -85 -14 -27 -5 -68 -12 -90 -15 -22 -3 -65 -10 -95 -15 -30 -5 -73
-12 -95 -15 -39 -5 -90 -13 -130 -21 -25 -4 -316 -51 -370 -59 -22 -3 -47 -7
-55 -10 -8 -2 -33 -6 -55 -10 -42 -6 -153 -23 -195 -30 -63 -10 -88 -14 -125
-20 -23 -3 -52 -8 -65 -10 -14 -3 -83 -14 -155 -26 -71 -11 -141 -22 -155 -25
-42 -7 -143 -23 -185 -29 -22 -4 -51 -8 -65 -11 -14 -2 -41 -7 -60 -10 -19 -3
-60 -9 -90 -14 -30 -5 -68 -12 -85 -14 -16 -3 -102 -17 -190 -31 -88 -15 -176
-28 -195 -31 -19 -2 -46 -7 -60 -9 -32 -6 -205 -35 -245 -41 -250 -38 -445
-130 -590 -279 -129 -131 -238 -344 -263 -515 -9 -58 -8 -240 1 -307 10 -73
59 -212 102 -288 31 -55 106 -158 175 -238 10 -12 87 -105 170 -207 84 -102
167 -203 185 -225 99 -120 252 -306 283 -345 20 -25 68 -83 107 -130 38 -46
77 -93 85 -103 8 -11 20 -24 25 -31 6 -6 28 -34 50 -61 22 -28 44 -55 50 -61
5 -6 26 -30 45 -54 104 -128 235 -288 254 -310 11 -14 39 -47 61 -75 22 -27
42 -52 45 -55 3 -3 25 -30 50 -60 25 -30 47 -57 50 -60 4 -4 60 -73 100 -124
8 -11 29 -35 46 -55 29 -35 243 -296 274 -335 8 -10 31 -38 50 -61 19 -23 51
-61 71 -86 341 -416 350 -426 427 -453 55 -20 156 -15 212 11 49 21 113 80
135 122 20 40 34 131 24 158 -5 13 -11 34 -13 46 -2 12 -27 112 -56 222 -28
110 -53 208 -55 217 -2 10 -20 82 -40 160 -20 79 -38 150 -40 158 -2 8 -28
114 -58 235 -59 235 -68 283 -68 385 1 227 93 457 248 615 43 44 241 230 297
278 11 10 50 46 86 80 57 53 119 110 295 272 76 69 221 203 255 235 20 19 81
76 136 125 54 50 112 103 129 118 16 16 73 68 125 115 52 48 124 115 160 148
36 34 79 74 95 89 29 26 180 165 254 233 152 141 194 191 236 287 31 70 36 91
40 200 5 129 -22 225 -96 335 -109 164 -265 250 -465 256 -56 2 -103 2 -105 0z
m-391 -676 c68 -50 95 -153 61 -229 -24 -53 -26 -56 -145 -137 -54 -37 -241
-165 -414 -284 -173 -119 -360 -247 -415 -285 -55 -38 -151 -104 -213 -147
-62 -43 -117 -78 -122 -78 -4 0 -10 -4 -12 -8 -1 -4 -23 -21 -48 -38 -25 -17
-154 -105 -287 -197 -446 -307 -431 -298 -528 -321 -120 -29 -230 -16 -342 40
-74 37 -108 69 -253 234 -40 47 -79 90 -84 95 -10 9 -85 94 -172 194 -16 18
-53 59 -81 90 -29 31 -62 75 -74 99 -42 85 -17 199 57 261 35 28 53 35 174 66
36 9 81 21 100 26 19 5 127 32 240 59 113 28 216 53 230 57 14 3 27 7 30 7 8
2 103 27 140 37 100 27 2009 498 2030 501 32 5 91 -15 128 -42z"/>
</g>
</svg>
